<?xml version="1.0" encoding="utf-8"?>
<!-- Generator: Adobe Illustrator 21.0.2, SVG Export Plug-In . SVG Version: 6.00 Build 0)  -->
<svg version="1.1" id="Layer_1" xmlns="http://www.w3.org/2000/svg" xmlns:xlink="http://www.w3.org/1999/xlink" x="0px" y="0px"
	 viewBox="0 0 841.7 595.4" style="enable-background:new 0 0 841.7 595.4;" xml:space="preserve">
<style type="text/css">
	.st0{fill:#FFFFFF;}
	.st1{fill:none;}
</style>
<rect x="296.6" y="163.5" transform="matrix(0.5 0.866 -0.866 0.5 307.9916 -177.7324)" class="st0" width="22.7" height="28.7"/>
<path class="st1" d="M484.8,156c-2.9,0-5.8,0.1-8.7,0.2c-2.9,0.1-5.1,0.4-6.6,0.8v42.5h11.3c8,0,14.5-1.8,19.5-5.4
	c5-3.6,7.5-9.6,7.5-18c0-6.3-2-11.2-5.9-14.8C498.1,157.8,492.4,156,484.8,156z"/>
<polygon class="st0" points="340.3,132.6 306.8,132.6 321.6,158.2 346.4,143.9 "/>
<polygon class="st0" points="425.3,132.6 392.9,132.6 371.1,172.4 366.5,183.1 361.7,172.4 357.1,163.9 333,177.8 348.3,204 
	303.7,279.2 336.1,279.2 359.6,237.3 365,226 370.7,237.3 393.1,279.2 426.6,279.2 383.2,204.2 "/>
<polygon class="st0" points="549.3,279.2 539.8,261.9 514.3,275.5 516.2,279.2 "/>
<path class="st0" d="M513.9,215.1c3.5-2,6.7-4.2,9.7-6.6c3-2.4,5.5-5.3,7.6-8.7c2.1-3.4,3.7-7.2,4.9-11.6c1.2-4.4,1.8-9.6,1.8-15.6
	c0-8.1-1.6-14.9-4.7-20.3c-3.1-5.4-7.3-9.8-12.6-13c-5.2-3.2-11.2-5.5-17.8-6.8c-6.6-1.3-13.4-2-20.2-2c-2.9,0-6.1,0.1-9.6,0.2
	c-3.5,0.1-7.1,0.4-10.8,0.6c-3.7,0.3-7.4,0.7-11.1,1.2c-3.7,0.5-7.2,1-10.4,1.6v145.1h28.7v-57.4h17.2l17.3,33.5l24.8-13.3
	L513.9,215.1z M500.3,194.2c-5,3.6-11.5,5.4-19.5,5.4h-11.3v-42.5c1.5-0.4,3.7-0.7,6.6-0.8c2.9-0.1,5.8-0.2,8.7-0.2
	c7.5,0,13.3,1.8,17.2,5.3c3.9,3.6,5.9,8.5,5.9,14.8C507.9,184.5,505.3,190.5,500.3,194.2z"/>
<rect x="542.3" y="227.2" transform="matrix(0.4721 0.8815 -0.8815 0.4721 505.2494 -360.514)" class="st0" width="22.7" height="28.7"/>
</svg>
